<?xml version="1.0" encoding="UTF-8"?>
<svg version="1.1" xmlns="http://www.w3.org/2000/svg" width="512" height="512">
<path d="M0 0 C5.4488372 4.54266931 9.58314085 10.20656368 13.6875 15.9375 C14.91736035 17.63065042 16.1478392 19.32335174 17.37890625 21.015625 C17.98750488 21.85544922 18.59610352 22.69527344 19.22314453 23.56054688 C21.82241683 27.12909988 24.46939659 30.66076721 27.125 34.1875 C27.61476318 34.83879883 28.10452637 35.49009766 28.60913086 36.16113281 C29.58913969 37.464355 30.56936232 38.76741644 31.54980469 40.0703125 C32.98663408 41.98221478 34.41973283 43.89685126 35.8515625 45.8125 C38.89321747 49.88090652 41.94372705 53.94256403 45 58 C45.66708984 58.88574707 46.33417969 59.77149414 47.02148438 60.68408203 C49.17722806 63.54225356 51.33796093 66.39658844 53.5 69.25 C54.18288086 70.15580811 54.86576172 71.06161621 55.56933594 71.99487305 C56.21676758 72.84734619 56.86419922 73.69981934 57.53125 74.578125 C58.39073242 75.71362793 58.39073242 75.71362793 59.26757812 76.87207031 C61.05407183 79.0664163 62.96664239 81.03456945 65 83 C65.4029126 82.14088013 65.4029126 82.14088013 65.81396484 81.2644043 C67.03774892 78.92792894 68.41971295 76.89748041 69.9765625 74.76953125 C70.56123291 73.9703125 71.14590332 73.17109375 71.74829102 72.34765625 C72.67726196 71.09275391 72.67726196 71.09275391 73.625 69.8125 C74.25656006 68.95914063 74.88812012 68.10578125 75.53881836 67.2265625 C89.7169353 48.21809775 89.7169353 48.21809775 98 47 C103.48725953 46.57790311 108.21655696 47.25186508 113 50 C123.15251876 59.45344078 131.03230743 71.31561481 139.15527344 82.48632812 C141.01032742 85.01407241 142.89565258 87.51651961 144.7890625 90.015625 C145.98449578 91.61449303 147.17981269 93.21344809 148.375 94.8125 C148.94057617 95.54670166 149.50615234 96.28090332 150.08886719 97.03735352 C153.12268242 101.13642354 154.77119066 103.70192013 154 109 C153.690625 110.546875 153.690625 110.546875 153.375 112.125 C152.967173 115.25167369 153.30530056 116.40810674 155 119 C156.216875 118.773125 157.43375 118.54625 158.6875 118.3125 C162.77581513 117.55027176 164.61288641 118.68472538 168 121 C169.84594727 123.0144043 169.84594727 123.0144043 171.56640625 125.32421875 C172.21029297 126.17951172 172.85417969 127.03480469 173.51757812 127.91601562 C174.19240234 128.83060547 174.86722656 129.74519531 175.5625 130.6875 C176.27212891 131.63431641 176.98175781 132.58113281 177.71289062 133.55664062 C179.81621629 136.36550023 181.90863442 139.18223036 184 142 C185.52858521 144.04337268 187.06025566 146.08439282 188.5925293 148.125 C189.53905078 149.38593408 190.48450868 150.64766717 191.42895508 151.91015625 C198.2226101 160.98803168 205.12028228 169.98731163 212 179 C216.71717954 185.1796822 221.43177881 191.36128465 226.13671875 197.55029297 C227.35684082 199.15442097 228.57815037 200.75764662 229.80078125 202.35986328 C231.45465452 204.52847194 233.10306594 206.70111905 234.75 208.875 C235.22727539 209.49866455 235.70455078 210.1223291 236.19628906 210.76489258 C236.64198242 211.3555249 237.08767578 211.94615723 237.546875 212.5546875 C237.92682617 213.05468262 238.30677734 213.55467773 238.69824219 214.06982422 C242.62783387 219.89640933 244.59811041 223.80552856 244.50120544 230.93861389 C244.50673984 231.70806931 244.51227424 232.47752474 244.51797634 233.27029699 C244.53152362 235.83295775 244.51664658 238.3946345 244.50170898 240.95727539 C244.50549429 242.80077018 244.51099608 244.64426213 244.51808167 246.48774719 C244.53202489 251.48356532 244.52087482 256.47903862 244.50437045 261.47483754 C244.49050473 266.70640782 244.49698169 271.93795838 244.50050354 277.16954041 C244.50320421 285.95333402 244.48974147 294.73699088 244.46655273 303.52075195 C244.43993566 313.6733766 244.43819908 323.82577273 244.4499411 333.97842032 C244.46072257 343.75000623 244.45452942 353.52150955 244.44038582 363.29308891 C244.43463007 367.44966015 244.43470546 371.60617087 244.43945122 375.762743 C244.4442258 380.65723994 244.43409928 385.55148682 244.41249657 390.4459362 C244.40693541 392.24141471 244.40645724 394.03691728 244.41144943 395.83239746 C244.4174124 398.28466507 244.40487824 400.73617073 244.38768005 403.18836975 C244.3936901 403.89761614 244.39970014 404.60686254 244.40589231 405.33760124 C244.34736804 409.93156538 243.42550055 413.09943911 241 417 C237.83515497 418.58242252 234.4316611 418.14070028 230.95639229 418.13422108 C230.11109614 418.13657331 229.2658 418.13892554 228.39488882 418.14134905 C225.53140454 418.14806391 222.66796539 418.14758008 219.80447388 418.14717102 C217.74319765 418.15046809 215.68192206 418.15419332 213.62064731 418.1583125 C207.93210059 418.16835829 202.24356442 418.17205342 196.55501008 418.17470181 C190.42948089 418.17859717 184.30396012 418.18817593 178.17843628 418.19691467 C164.07440319 418.21576417 149.97037203 418.22593771 135.86632989 418.23437535 C128.90038418 418.23857924 121.93443933 418.24380153 114.96849435 418.24905988 C91.13475548 418.26695029 67.30101638 418.28194792 43.4672718 418.28938007 C41.97057571 418.28985483 40.47387961 418.29033072 38.97718351 418.29080774 C37.86381859 418.2911623 37.86381859 418.2911623 36.72796144 418.29152403 C32.96724122 418.29272525 29.206521 418.29394069 25.44580078 418.29516602 C24.69946824 418.29540617 23.95313571 418.29564632 23.18418703 418.29589374 C-1.02541591 418.30379046 -25.23496991 418.32722984 -49.44455147 418.35972196 C-75.02587245 418.3939926 -100.60716479 418.41372859 -126.18850911 418.41702431 C-128.9947943 418.41744187 -131.80107948 418.41792144 -134.60736465 418.41844749 C-135.2983772 418.41857069 -135.98938975 418.41869388 -136.70134207 418.4188208 C-147.83800906 418.42115615 -158.97461936 418.43683458 -170.11126612 418.45728934 C-181.29749831 418.47750981 -192.48366316 418.48270821 -203.6699165 418.47351871 C-209.73414376 418.46895508 -215.79818634 418.47097943 -221.86238861 418.49028015 C-227.40772489 418.50777779 -232.9527399 418.50702402 -238.49807896 418.49138286 C-240.51019395 418.48898628 -242.52233041 418.49343512 -244.53441237 418.50521151 C-247.25824236 418.52017329 -249.98091066 418.51076788 -252.70471001 418.49498463 C-253.49580298 418.50520683 -254.28689595 418.51542904 -255.10196143 418.52596101 C-258.61186382 418.48121321 -260.61005382 418.29269301 -263.45595562 416.15656346 C-266.31951444 412.15703702 -266.14621608 408.36548087 -266.14044189 403.64956665 C-266.14341302 402.89507402 -266.14638414 402.14058139 -266.1494453 401.36322534 C-266.15813736 398.82758829 -266.15964096 396.29199843 -266.16113281 393.75634766 C-266.16576058 391.94137979 -266.17078519 390.1264129 -266.17617798 388.31144714 C-266.18930688 383.37549645 -266.19574775 378.43955935 -266.20018864 373.50359392 C-266.20311823 370.42119062 -266.20722279 367.33879105 -266.21169281 364.25638962 C-266.22536827 354.6161757 -266.23503501 344.9759703 -266.2388947 335.33574736 C-266.24337744 324.19999415 -266.26093519 313.06436356 -266.2898953 301.92864764 C-266.31149386 293.32560524 -266.32159799 284.7225974 -266.32293582 276.11952817 C-266.32398504 270.97903761 -266.32991793 265.8386623 -266.34775543 260.69820023 C-266.36420483 255.86371381 -266.36640688 251.02942969 -266.35761642 246.19492531 C-266.3568444 244.41997932 -266.36121047 242.64502259 -266.37107468 240.87010384 C-266.38374712 238.44796045 -266.37794338 236.02653867 -266.36749268 233.60440063 C-266.37554908 232.90118577 -266.38360548 232.1979709 -266.39190602 231.47344649 C-266.34829981 227.15551355 -265.6571879 224.42748411 -263 221 C-260.06028115 219.45664761 -258.33156142 219 -255 219 C-254.72994141 218.42435303 -254.45988281 217.84870605 -254.18164062 217.25561523 C-252.9807986 214.96334676 -251.63244685 212.98909053 -250.09375 210.91015625 C-249.52027832 210.1330127 -248.94680664 209.35586914 -248.35595703 208.55517578 C-247.74349121 207.73259277 -247.13102539 206.91000977 -246.5 206.0625 C-245.86562012 205.20640137 -245.23124023 204.35030273 -244.57763672 203.46826172 C-239.93592201 197.21939294 -235.21791993 191.03559531 -230.45214844 184.88085938 C-222.1396527 174.11430471 -213.90828034 163.28911598 -205.875 152.3125 C-199.55047787 143.67315564 -193.03830015 135.18786541 -186.40307617 126.78491211 C-185.19461591 125.24757906 -184.0073187 123.69365279 -182.82421875 122.13671875 C-179.41757041 118.1464904 -175.48727894 116.35842884 -170.31640625 115.61328125 C-163.96684018 115.35788955 -159.18565651 116.28783045 -154 120 C-149.09270227 124.92990429 -145.14777633 130.79014092 -141.125 136.4375 C-140.23554688 137.67790039 -140.23554688 137.67790039 -139.328125 138.94335938 C-137.88252838 140.96019982 -136.43989595 142.97908778 -135 145 C-130.45410011 140.7537357 -126.86906836 136.00064333 -123.1875 131 C-121.85624319 129.20775783 -120.52418468 127.41611092 -119.19140625 125.625 C-118.50449707 124.70074219 -117.81758789 123.77648437 -117.10986328 122.82421875 C-113.64831472 118.19066243 -110.13680185 113.59551709 -106.625 109 C-101.87051443 102.77242822 -97.13736454 96.53155671 -92.44921875 90.25390625 C-89.7864255 86.70313084 -87.08570778 83.18142959 -84.39013672 79.65551758 C-78.4808025 71.92477517 -72.62042471 64.16596409 -66.875 56.3125 C-61.79459458 49.37016589 -56.57697967 42.55315934 -51.26269531 35.78857422 C-46.93164494 30.2549947 -42.76313269 24.61625544 -38.625 18.9375 C-17.71120868 -9.54127995 -17.71120868 -9.54127995 0 0 Z " fill="#232020" transform="translate(267,94)"/>
<path d="M0 0 C2.26561117 0.20848373 4.53123654 0.41681314 6.796875 0.625 C21.13807192 2.01478848 35.12028107 4.34734444 49.19580078 7.40332031 C51.7491617 7.94662643 54.30538378 8.44871642 56.87109375 8.9296875 C101.2456001 17.38085343 146.04862212 35.82099744 180 66 C180 79.2 180 92.4 180 106 C22.92 106 -134.16 106 -296 106 C-296 83 -296 83 -290.5 75.5625 C-288.9389248 74.17684865 -287.37545904 72.79158098 -285.75048828 71.48144531 C-283.75294049 69.79091254 -281.96799254 67.96240331 -280.1484375 66.08203125 C-276.09961352 61.99020664 -271.77008288 58.51451056 -267.125 55.125 C-266.29838867 54.52131592 -265.47177734 53.91763184 -264.62011719 53.2956543 C-256.44898845 47.43947134 -247.95650318 42.54188094 -239 38 C-238.1342334 37.5555957 -237.2684668 37.11119141 -236.37646484 36.65332031 C-215.71521993 26.12937842 -194.27087555 18.35379701 -171.79541016 12.70605469 C-168.93470726 11.98350859 -166.08305865 11.23043737 -163.23046875 10.4765625 C-146.00870853 6.02751392 -128.62017369 3.25545724 -111 1 C-109.71754395 0.83338867 -108.43508789 0.66677734 -107.11376953 0.49511719 C-71.84732536 -3.88541323 -35.32365753 -3.59223636 0 0 Z " fill="#35CB6A" transform="translate(314,390)"/>
<path d="M0 0 C1.28940491 -0.0080365 1.28940491 -0.0080365 2.6048584 -0.01623535 C19.86077583 -0.09787625 36.44667928 1.66212885 53.375 5 C54.04009583 5.13038666 54.70519165 5.26077332 55.39044189 5.39511108 C66.84486656 7.65553412 77.9626098 10.44300237 89 14.25 C90.01884277 14.59998047 91.03768555 14.94996094 92.08740234 15.31054688 C116.75816765 23.85421874 140.86553327 33.82111972 160.1875 51.9375 C162.73709493 54.304981 163.94002523 55.22963121 167.3125 56.375 C170.14702154 56.24316179 171.68629088 55.87816568 174 54.25 C175.49498913 51.26002175 175.11577446 48.54957225 175 45.25 C174.36530659 42.18892847 174.36530659 42.18892847 172.2890625 41.35546875 C171.53367187 40.99066406 170.77828125 40.62585938 170 40.25 C168.09603917 38.72292292 166.2241535 37.15550427 164.375 35.5625 C159.14233216 31.10678439 153.71848124 27.07075517 148 23.25 C151.21530099 21.106466 152.97335086 20.76496806 156.7421875 20.21484375 C157.89203125 20.04533203 159.041875 19.87582031 160.2265625 19.70117188 C161.43054688 19.53166016 162.63453125 19.36214844 163.875 19.1875 C165.0403125 19.01412109 166.205625 18.84074219 167.40625 18.66210938 C200.11407942 13.92998993 234.4776816 14.43150612 267 20.25 C268.09554199 20.44255371 269.19108398 20.63510742 270.31982422 20.83349609 C287.5715164 23.9467594 303.72124339 28.73849736 320 35.25 C320 57.69 320 80.13 320 103.25 C314.06 103.745 314.06 103.745 308 104.25 C307.0925 102.538125 306.185 100.82625 305.25 99.0625 C299.19482251 88.0874908 291.30974753 81.51062955 279.13671875 77.91015625 C268.46830225 75.66487308 258.19245787 77.08724185 248.71875 82.5703125 C241.44114454 87.69262711 236.08351411 94.40965292 232 102.25 C225.9014479 101.70686527 220.40195473 100.68030008 214.5546875 98.91015625 C205.49485048 96.29017356 196.40108191 94.3628772 187.125 92.6875 C186.32161194 92.5403656 185.51822388 92.3932312 184.69049072 92.24163818 C172.4661473 90.01807717 160.22412808 88.24007884 147.875 86.875 C146.81010345 86.75582718 146.81010345 86.75582718 145.72369385 86.63424683 C126.89873079 84.56510836 108.05223851 84.04061271 89.125 84.0625 C88.14754822 84.06310425 87.17009644 84.0637085 86.1630249 84.06433105 C46.40312206 84.13058813 7.71057576 88.53985022 -30.91552734 98.08203125 C-33.70071074 98.76324808 -36.1180946 99.25 -39 99.25 C-39.14695312 98.63253906 -39.29390625 98.01507813 -39.4453125 97.37890625 C-42.50604824 85.82199025 -48.85232734 77.45451333 -59.1875 71.375 C-64.74121659 69.15351336 -69.91831023 69.12327161 -75.8125 69.1875 C-76.99489258 69.19426758 -76.99489258 69.19426758 -78.20117188 69.20117188 C-80.13414761 69.21288688 -82.06708393 69.23082002 -84 69.25 C-84.1959375 68.56035156 -84.391875 67.87070312 -84.59375 67.16015625 C-87.34991333 58.49962579 -91.69353415 51.59600047 -99.625 46.8125 C-100.73875 46.296875 -101.8525 45.78125 -103 45.25 C-103.886875 44.8375 -104.77375 44.425 -105.6875 44 C-115.5046905 41.77723989 -123.27029083 43.23423701 -131.921875 48.19921875 C-138.10828107 52.32087254 -140.53194306 56.65703687 -142.6875 63.625 C-143.450625 65.15125 -144.21375 66.6775 -145 68.25 C-150.445 69.24 -150.445 69.24 -156 70.25 C-156 60.68 -156 51.11 -156 41.25 C-153.69 40.59 -151.38 39.93 -149 39.25 C-146.67962786 37.94960187 -144.4765167 36.62769925 -142.25 35.1875 C-99.4161 8.6309139 -49.59184545 0.17266887 0 0 Z " fill="#AFDF45" transform="translate(174,288.75)"/>
<path d="M0 0 C4.21031263 1.26309379 7.933157 2.91059064 11.77734375 5 C17.7018667 7.66551472 23.28986841 8.38869796 29.6875 8.375 C30.47552002 8.37338867 31.26354004 8.37177734 32.07543945 8.37011719 C40.53199054 8.19413673 47.79172679 6.08654174 55 1.625 C55.99 1.08875 56.98 0.5525 58 0 C61.09139066 1.07093004 62.74734895 2.58414008 64.671875 5.17578125 C65.40845337 6.15393799 65.40845337 6.15393799 66.15991211 7.15185547 C66.68464111 7.86486816 67.20937012 8.57788086 67.75 9.3125 C68.9124883 10.86348525 70.07526164 12.41425687 71.23828125 13.96484375 C71.85010254 14.78581543 72.46192383 15.60678711 73.09228516 16.45263672 C75.67479578 19.90105186 78.29680472 23.31853403 80.91772461 26.73779297 C91.43930022 40.47574289 101.69708672 54.39851453 111.8125 68.4375 C115.58022288 73.66351322 119.3504647 78.88705611 123.1875 84.0625 C123.88230469 85.00222656 124.57710937 85.94195312 125.29296875 86.91015625 C127.49091456 89.60100525 128.42563807 89.92508323 131.875 90.375 C135.14847147 90.29126545 135.14847147 90.29126545 137.375 87.8125 C139.16533794 84.71383819 139.34979051 83.4935908 139 80 C138.00514838 77.94313595 138.00514838 77.94313595 136.5078125 76.06640625 C135.9718042 75.34114746 135.4357959 74.61588867 134.88354492 73.86865234 C134.01306519 72.72710693 134.01306519 72.72710693 133.125 71.5625 C131.93577251 69.9625557 130.74697585 68.36229108 129.55859375 66.76171875 C128.96159668 65.96556152 128.36459961 65.1694043 127.74951172 64.34912109 C125.17672405 60.89456304 122.67977768 57.38785019 120.1875 53.875 C119.36869717 52.72641449 118.54970891 51.57796112 117.73046875 50.4296875 C117.15941406 49.62789062 116.58835937 48.82609375 116 48 C117.39571702 45.02018184 119.02366434 42.45029824 120.9765625 39.8046875 C121.56147461 39.01054443 122.14638672 38.21640137 122.74902344 37.39819336 C123.67763184 36.14921265 123.67763184 36.14921265 124.625 34.875 C125.25438477 34.02494385 125.88376953 33.1748877 126.53222656 32.29907227 C137.62230272 17.37769728 137.62230272 17.37769728 142 13 C145.15371713 13.14803621 146.59492758 13.60756799 148.87768555 15.8190918 C149.4581665 16.60453369 150.03864746 17.38997559 150.63671875 18.19921875 C151.29140137 19.07191406 151.94608398 19.94460937 152.62060547 20.84375 C153.30268066 21.7821875 153.98475586 22.720625 154.6875 23.6875 C155.39793457 24.64269531 156.10836914 25.59789062 156.84033203 26.58203125 C160.74205624 31.8470085 164.57475466 37.16144896 168.375 42.5 C168.76461914 43.04180908 169.15423828 43.58361816 169.55566406 44.1418457 C171.58402495 46.96950381 173.5434467 49.82652507 175.44140625 52.7421875 C179.47169083 59.245074 179.47169083 59.245074 185.93359375 62.59765625 C188.85250732 62.4789749 188.85250732 62.4789749 191.63671875 62.05859375 C194 62 194 62 195.58203125 63.28515625 C196.6875 65 196.6875 65 198 68 C197.67 68.515625 197.34 69.03125 197 69.5625 C195.57104294 73.04558284 195.56905863 75.22737292 196 79 C197.6979676 82.2055409 199.88294106 84.96988956 202.125 87.8125 C202.75664062 88.64072266 203.38828125 89.46894531 204.0390625 90.32226562 C206.00859837 92.89555802 208.00120708 95.44939005 210 98 C211.1853721 99.52436935 212.37028633 101.04909489 213.5546875 102.57421875 C215.28172227 104.7949363 217.01085762 107.013849 218.74658203 109.2277832 C223.53382827 115.34615319 228.14282553 121.58399743 232.72143555 127.859375 C237.55182291 134.45551228 242.55319875 140.90765051 247.64648438 147.30273438 C248.20271484 148.00720703 248.75894531 148.71167969 249.33203125 149.4375 C250.07030151 150.36369141 250.07030151 150.36369141 250.82348633 151.30859375 C252 153 252 153 253 156 C247.83717196 155.57854465 243.1437717 154.53232041 238.15625 153.12109375 C230.37043856 150.98641667 222.53916194 149.56098609 214.5625 148.3125 C213.28568359 148.10044922 212.00886719 147.88839844 210.69335938 147.66992188 C194.68580642 145.11355196 178.81761102 144.81341148 162.64624023 144.81469727 C159.57066086 144.81250581 156.49543851 144.79425883 153.41992188 144.77539062 C141.78242685 144.74171316 130.51116767 145.29311213 119 147 C117.87907959 147.15670166 116.75815918 147.31340332 115.60327148 147.47485352 C112.54293862 147.91399702 109.49017225 148.3856251 106.4375 148.875 C105.37684326 149.04281982 104.31618652 149.21063965 103.22338867 149.38354492 C95.73752207 150.60949696 88.48710911 152.24156842 81.20703125 154.36328125 C75.44613381 155.50704043 71.31929867 153.86282775 66.125 151.4375 C47.03370952 142.88583339 26.45667756 137.06656911 5.85546875 133.65234375 C2.87860028 133.14865881 -0.05258372 132.5830292 -3 131.9375 C-14.05918379 129.74199041 -24.92423286 128.84444653 -36.1875 129.04296875 C-38.14192408 129.06343976 -40.09635123 129.08361937 -42.05078125 129.10351562 C-45.04614034 129.13633675 -48.03519101 129.18878499 -51.02880859 129.2980957 C-67.40461423 129.85385972 -67.40461423 129.85385972 -71.77587891 126.73150635 C-75.06698193 123.28319102 -76.99285963 119.30567169 -79 115 C-79.57202148 114.24855713 -80.14404297 113.49711426 -80.73339844 112.72290039 C-81.15137695 112.15434326 -81.56935547 111.58578613 -82 111 C-81.04000369 105.89779741 -76.92306389 101.82612827 -73.75 97.875 C-68.75661135 91.56074208 -63.87224937 85.18890095 -59.125 78.6875 C-50.89838915 67.44562222 -42.42669897 56.39468335 -33.95898438 45.33398438 C-25.56405882 34.36343449 -17.24957943 23.34319847 -9.0859375 12.19921875 C-6.08863495 8.1091298 -3.05129782 4.04991683 0 0 Z " fill="#BBAD89" transform="translate(225,145)"/>
<path d="M0 0 C5.24056152 3.76270373 10.17531979 8.14793877 13.73046875 13.57421875 C13.73046875 14.23421875 13.73046875 14.89421875 13.73046875 15.57421875 C14.56320312 15.25324219 15.3959375 14.93226562 16.25390625 14.6015625 C26.10516038 11.69046156 35.97512785 12.87162971 45.1796875 17.08984375 C53.59932759 21.98948117 58.47803904 29.53969178 61.73046875 38.57421875 C61.73046875 39.56421875 61.73046875 40.55421875 61.73046875 41.57421875 C62.63796875 41.59484375 63.54546875 41.61546875 64.48046875 41.63671875 C72.97692827 42.88010307 81.01304815 48.80015173 86.26171875 55.38671875 C92.73046875 65.02102726 92.73046875 65.02102726 92.73046875 70.57421875 C93.28734375 70.6 93.84421875 70.62578125 94.41796875 70.65234375 C101.65224702 71.19002659 106.89755973 73.13659936 112.41796875 77.88671875 C113.56265625 79.21703125 113.56265625 79.21703125 114.73046875 80.57421875 C115.17390625 81.08855469 115.61734375 81.60289063 116.07421875 82.1328125 C120.89078879 88.19553003 122.02367793 94.36936094 121.66796875 102.01171875 C120.57266377 110.91107171 116.76675041 117.5955936 109.7734375 123.171875 C102.11447725 128.42917276 93.74920872 128.72452219 84.7409668 128.71948242 C83.86843262 128.72284103 82.99589844 128.72619965 82.09692383 128.72966003 C79.22866367 128.73911475 76.36046224 128.74111039 73.4921875 128.7421875 C71.48590573 128.74540392 69.47962419 128.74876828 67.4733429 128.75227356 C63.27299455 128.75825115 59.07266675 128.76011487 54.87231445 128.75952148 C49.50944741 128.75941995 44.14671302 128.77306944 38.78387737 128.79029369 C34.64099023 128.80145216 30.49813477 128.80343951 26.35523415 128.80291176 C24.37903194 128.80408618 22.40282876 128.80847752 20.42664146 128.81624413 C17.65371984 128.82612179 14.88108119 128.82313551 12.1081543 128.81713867 C10.9022036 128.82556793 10.9022036 128.82556793 9.67189026 128.83416748 C-0.91611921 128.7764394 -11.41938856 126.768742 -19.53515625 119.5625 C-26.55216812 112.11667074 -30.39184409 103.94663963 -30.45703125 93.69921875 C-30.47121094 92.69117187 -30.48539062 91.683125 -30.5 90.64453125 C-30.25185847 87.33878143 -29.36309037 84.68992769 -28.26953125 81.57421875 C-29.39858887 81.59516602 -30.52764648 81.61611328 -31.69091797 81.63769531 C-35.92141801 81.71066343 -40.15186362 81.75622287 -44.3828125 81.79394531 C-46.20615017 81.81393239 -48.02942481 81.84113161 -49.85253906 81.87597656 C-70.49611515 82.26035859 -70.49611515 82.26035859 -79.85546875 75.78515625 C-86.48295317 68.98402595 -89.41366791 62.55330459 -89.76953125 53.01171875 C-89.44347679 44.0504801 -86.26984312 37.80141355 -80.18359375 31.30078125 C-74.58033658 26.24641458 -68.66240818 24.91648157 -61.26953125 24.57421875 C-61.12257813 24.01734375 -60.975625 23.46046875 -60.82421875 22.88671875 C-57.72624783 12.34649584 -50.49654886 3.59308912 -40.83203125 -1.78125 C-27.92756331 -7.66042372 -12.16929793 -7.6450839 0 0 Z " fill="#232021" transform="translate(370.26953125,5.42578125)"/>
<path d="M0 0 C1.44770962 -0.00202548 2.89541823 -0.00494086 4.34312439 -0.00869751 C7.36304531 -0.01309719 10.38269834 -0.00676565 13.40258789 0.00732422 C17.25464438 0.02443044 21.10607428 0.01455131 24.95810795 -0.00339317 C27.94287254 -0.01428209 30.92749083 -0.01076168 33.91226006 -0.0030098 C35.33189406 -0.00102266 36.75154178 -0.00341422 38.17115974 -0.01044846 C48.66774435 -0.05106603 56.74071233 0.80128144 65.1328125 7.5546875 C70.32507446 12.78016223 72.2643721 18.62671554 72.58984375 25.8984375 C72.23906333 33.94742604 69.56440016 40.30355444 63.65234375 45.8359375 C55.80200722 52.46027689 46.09859353 51.87273495 36.44140625 51.8671875 C34.92979658 51.87430189 33.41818956 51.88200272 31.90658569 51.89025879 C28.74786868 51.90365586 25.58940141 51.90529412 22.43066406 51.89941406 C18.40699818 51.89352334 14.38454117 51.92410425 10.36110878 51.96453094 C7.24156374 51.99053421 4.12230493 51.99327403 1.00266647 51.98963928 C-0.4795396 51.99131887 -1.96176059 52.00084808 -3.4438591 52.01878357 C-13.12802588 52.12309212 -21.48681798 51.48910816 -28.93197632 44.65808105 C-35.16545598 38.04443136 -36.68139441 31.61755504 -36.4453125 22.6875 C-35.60635379 15.95985015 -32.68181628 10.61790088 -27.78515625 5.9609375 C-19.33347584 -0.24070623 -10.13444073 -0.05029946 0 0 Z " fill="#242122" transform="translate(143.03515625,41.6015625)"/>
<path d="M0 0 C1.54300781 -0.02513672 1.54300781 -0.02513672 3.1171875 -0.05078125 C7.37613901 0.46361159 10.02199376 2.09131452 12.875 5.25 C15.51958313 9.61356216 15.58237477 14.31256219 15.125 19.3125 C14.5990625 20.3334375 14.5990625 20.3334375 14.0625 21.375 C12.542946 24.5154116 13.33211391 27.01897317 14.125 30.3125 C17.94913206 32.86192138 19.57923416 32.90866601 24.125 32.3125 C26.36359902 30.93648042 28.32305158 29.41894836 30.328125 27.72265625 C34.61055064 24.36188308 39.95667318 24.87983946 45.125 25.3125 C51.46103348 27.28601862 54.96889094 30.48725364 58.9375 35.6875 C60.44191799 39.01305556 60.20539923 41.6987661 60.125 45.3125 C59.3721875 45.58811768 58.619375 45.86373535 57.84375 46.14770508 C22.86247723 59.0189243 -10.53075368 73.57339321 -37.93359375 99.546875 C-39.875 101.3125 -39.875 101.3125 -40.875 101.3125 C-40.94456294 92.53279475 -40.9978431 83.75318462 -41.03043652 74.97326374 C-41.0460811 70.89622056 -41.06729708 66.81936617 -41.10131836 62.74243164 C-41.13395524 58.80668982 -41.1518621 54.8711294 -41.15963173 50.93526268 C-41.1651675 49.43497043 -41.17597761 47.93468791 -41.19219017 46.43447304 C-41.21402272 44.33020328 -41.2169646 42.22667956 -41.21557617 40.12231445 C-41.22223801 38.92540482 -41.22889984 37.72849518 -41.23576355 36.49531555 C-40.72414177 31.98156197 -39.17595364 29.36291663 -35.6640625 26.52734375 C-31.01605972 24.50279352 -26.27702187 24.89013294 -21.2734375 24.81640625 C-17.88745953 24.62358195 -17.88745953 24.62358195 -15.9375 22.64453125 C-14.63185521 19.77883295 -14.53998106 17.58001118 -14.5 14.4375 C-14.1582059 8.59851746 -13.19060974 6.21709929 -8.875 2.3125 C-5.45170149 0.03030099 -4.03362332 0.01508837 0 0 Z " fill="#2CA454" transform="translate(58.875,347.6875)"/>
<path d="M0 0 C6.82387727 4.01404546 11.57212535 8.24347088 14.1875 15.875 C14.72400155 18.47259386 15.16948346 21.04404329 15.5 23.67578125 C16.04810104 25.98191959 16.04810104 25.98191959 17.84765625 27.66796875 C21.77866794 29.69581952 25.68141769 28.92748198 29.99609375 28.6875 C33.62290524 28.90058072 35.31123225 29.70634503 38.1875 31.875 C41.25109965 36.16403951 41.65916248 39.68030284 40.90625 44.75390625 C39.47198993 48.98653242 36.08402514 50.92673743 32.1875 52.875 C29.19862176 52.98418082 26.23269102 53.03233978 23.24316406 53.03613281 C21.85266846 53.04358017 21.85266846 53.04358017 20.43408203 53.05117798 C17.35708888 53.06582246 14.28014732 53.07260606 11.203125 53.078125 C9.06801349 53.08387538 6.932902 53.08963313 4.79779053 53.09539795 C0.31538654 53.105915 -4.16699947 53.11175279 -8.64941406 53.11523438 C-14.39064639 53.12071497 -20.13164106 53.14473087 -25.87279892 53.17320633 C-30.28575328 53.19184062 -34.69865055 53.19703878 -39.11164093 53.19857025 C-41.22792101 53.20159644 -43.34420009 53.20962382 -45.46044159 53.22275543 C-48.42400606 53.23982921 -51.3869921 53.23793209 -54.35058594 53.23144531 C-55.22354309 53.2406601 -56.09650024 53.24987488 -56.99591064 53.2593689 C-62.87246214 53.21911954 -67.19950782 52.28530725 -71.67578125 48.15625 C-72.15402344 47.5684375 -72.63226563 46.980625 -73.125 46.375 C-73.61613281 45.7871875 -74.10726563 45.199375 -74.61328125 44.59375 C-77.82590808 39.9893337 -77.34315427 34.23537719 -76.8125 28.875 C-74.39136537 23.42744708 -70.28508436 20.08472049 -64.8125 17.875 C-56.39360381 16.33821736 -50.63558551 19.32627632 -43.8125 23.875 C-40.27225858 23.95267129 -40.27225858 23.95267129 -36.8125 22.875 C-34.9316319 20.64582299 -34.02909049 18.38160149 -32.890625 15.71875 C-29.53875976 7.98367637 -26.49036812 3.48699659 -18.66796875 -0.17578125 C-12.3745355 -2.26785277 -6.29158193 -1.85653237 0 0 Z " fill="#B6E3F2" transform="translate(433.8125,64.125)"/>
<path d="M0 0 C8.34287857 4.4771051 11.44107111 11.71600311 14.78515625 20.0546875 C15.79451276 22.30122445 15.79451276 22.30122445 18.8125 23.97265625 C23.70043597 23.8615668 26.49886053 22.05516654 30.19921875 19.12890625 C33.96992862 16.42641201 38.36709937 16.29584785 42.8125 16.97265625 C48.90509148 19.28983858 52.74671903 22.24097879 55.8125 27.97265625 C52.74640113 30.46933676 49.66841814 32.00021583 46.0625 33.59765625 C38.64206575 37.22623046 33.26624453 42.41545287 29.8125 49.97265625 C29.12285156 49.82828125 28.43320312 49.68390625 27.72265625 49.53515625 C15.98014345 47.21564755 7.71731067 47.52025092 -3.1875 52.97265625 C-4.72815363 53.07767281 -6.27320424 53.12135465 -7.81738281 53.13378906 C-8.77888245 53.14339661 -9.74038208 53.15300415 -10.73101807 53.16290283 C-11.77368835 53.16715271 -12.81635864 53.17140259 -13.890625 53.17578125 C-15.4964444 53.18433136 -15.4964444 53.18433136 -17.13470459 53.1930542 C-19.40440886 53.20251388 -21.67412693 53.20904201 -23.94384766 53.21289062 C-27.40942546 53.22257777 -30.8744057 53.253585 -34.33984375 53.28515625 C-36.54426731 53.29168805 -38.74869511 53.29693783 -40.953125 53.30078125 C-41.98769836 53.31312805 -43.02227173 53.32547485 -44.0881958 53.3381958 C-49.53953247 53.32140095 -53.50407934 53.09935561 -58.1875 49.97265625 C-61.3680499 46.36803303 -61.75704504 42.84946061 -61.6171875 38.1953125 C-60.88137346 34.38914716 -58.96295759 32.61594919 -56.1875 29.97265625 C-52.73390109 28.2458568 -48.51551873 28.68521092 -44.68554688 28.63085938 C-41.5799158 28.50006394 -39.66251651 28.39565649 -37.296875 26.2890625 C-36.0116292 23.60543307 -35.43149223 21.14518687 -34.875 18.22265625 C-33.02560063 10.39607438 -29.77237707 5.41728259 -23 1.03515625 C-15.76361356 -3.17536446 -7.66704838 -3.32341815 0 0 Z " fill="#B5E2F0" transform="translate(359.1875,18.02734375)"/>
<path d="M0 0 C3.03071557 0.56938533 3.70264703 1.28723167 5.52246094 3.73242188 C6.06644531 4.44736816 6.61042969 5.16231445 7.17089844 5.89892578 C7.74195312 6.68315918 8.31300781 7.46739258 8.90136719 8.27539062 C9.50464844 9.0776709 10.10792969 9.87995117 10.72949219 10.70654297 C12.65770555 13.27998922 14.5619018 15.87000131 16.46386719 18.46289062 C17.73527598 20.17827317 19.00740294 21.89312368 20.28027344 23.60742188 C23.16382194 27.49993021 26.03373804 31.40186602 28.87792969 35.32324219 C29.97126519 36.79830259 31.09308362 38.25252953 32.23730469 39.68847656 C32.79675781 40.39520508 33.35621094 41.10193359 33.93261719 41.83007812 C34.44244141 42.45769043 34.95226562 43.08530273 35.47753906 43.73193359 C35.96577148 44.58875732 35.96577148 44.58875732 36.46386719 45.46289062 C36.13386719 46.45289063 35.80386719 47.44289063 35.46386719 48.46289062 C34.77574951 48.56311523 34.08763184 48.66333984 33.37866211 48.76660156 C5.22209102 52.89907443 -21.47379165 58.29965582 -47.70727539 69.70581055 C-48.57505615 70.07939697 -49.44283691 70.4529834 -50.33691406 70.83789062 C-51.4841394 71.34449219 -51.4841394 71.34449219 -52.65454102 71.86132812 C-54.53613281 72.46289062 -54.53613281 72.46289062 -56.53613281 71.46289062 C-56.18534668 71.0171167 -55.83456055 70.57134277 -55.47314453 70.11206055 C-47.99362573 60.59124126 -40.65801001 50.98484268 -33.50390625 41.21704102 C-29.51595251 35.77693979 -25.46738856 30.39905646 -21.31347656 25.08398438 C-18.99615322 22.09777924 -16.76724467 19.05195132 -14.54003906 15.99804688 C-13.82895996 15.03495605 -13.11788086 14.07186523 -12.38525391 13.07958984 C-10.96262512 11.15179448 -9.55239435 9.21477772 -8.15576172 7.26806641 C-7.50140137 6.38747559 -6.84704102 5.50688477 -6.17285156 4.59960938 C-5.59237061 3.80256592 -5.01188965 3.00552246 -4.41381836 2.18432617 C-2.53613281 0.46289062 -2.53613281 0.46289062 0 0 Z " fill="#AB9E7F" transform="translate(99.5361328125,226.537109375)"/>
<path d="M0 0 C6.13064153 1.83919246 11.68192101 4.454614 17 8 C15.94425781 9.29357422 15.94425781 9.29357422 14.8671875 10.61328125 C8.5264437 18.43353194 2.43417203 26.39723765 -3.50439453 34.52661133 C-7.92972108 40.57512017 -12.44297084 46.5502103 -17 52.5 C-22.1135812 59.17834933 -27.15915023 65.89860178 -32.125 72.6875 C-36.65115692 78.87256511 -41.27060087 84.96896162 -46 91 C-50.97444752 97.34523101 -55.84214067 103.75897662 -60.625 110.25 C-61.49511719 111.42949219 -61.49511719 111.42949219 -62.3828125 112.6328125 C-65.36056986 116.69211381 -68.24776803 120.78438615 -71 125 C-72.33985898 123.33857487 -73.67082708 121.66998649 -75 120 C-75.62519531 119.28714844 -76.25039062 118.57429688 -76.89453125 117.83984375 C-77.54808594 117.06769531 -78.20164063 116.29554688 -78.875 115.5 C-79.51179687 114.7678125 -80.14859375 114.035625 -80.8046875 113.28125 C-82 111 -82 111 -81.5859375 108.7265625 C-79.31543004 104.82307924 -76.57395505 101.39141474 -73.75 97.875 C-68.75661135 91.56074208 -63.87224937 85.18890095 -59.125 78.6875 C-50.89838915 67.44562222 -42.42669897 56.39468335 -33.95898438 45.33398438 C-25.56405882 34.36343449 -17.24957943 23.34319847 -9.0859375 12.19921875 C-6.08863495 8.1091298 -3.05129782 4.04991683 0 0 Z " fill="#AB9E7F" transform="translate(225,145)"/>
<path d="M0 0 C6.11943149 3.99658446 10.28065556 8.81984461 12 16 C13.01176107 25.58265656 11.91236307 32.53923959 5.875 40.1875 C0.48523052 45.9823461 -5.07419796 48.1693349 -12.9375 48.5625 C-20.18953147 48.2764784 -25.75992208 45.98159304 -31.10546875 41.0625 C-37.44476344 34.16116475 -38.41639608 28.66612435 -38.2421875 19.375 C-37.74931529 12.50658733 -34.77716129 7.83625912 -30.15234375 2.80078125 C-21.51698004 -4.42408748 -9.83272488 -4.82198201 0 0 Z " fill="#231F20" transform="translate(84,45)"/>
<path d="M0 0 C2.23046875 1.90625 2.23046875 1.90625 4.1875 4.5 C4.94933594 5.49902344 5.71117187 6.49804688 6.49609375 7.52734375 C7.33460214 8.68209341 8.16903295 9.83981171 9 11 C9.45004395 11.62535645 9.90008789 12.25071289 10.36376953 12.89501953 C12.87839739 16.40478696 15.36254305 19.93491907 17.83203125 23.4765625 C20.98761017 27.9973764 24.20381762 32.4723325 27.4375 36.9375 C27.97294434 37.67750244 28.50838867 38.41750488 29.06005859 39.17993164 C30.70602141 41.4537842 32.35295405 43.72693191 34 46 C35.15511031 47.59493449 36.31005701 49.18998748 37.46484375 50.78515625 C38.03251465 51.56930908 38.60018555 52.35346191 39.18505859 53.16137695 C40.82651864 55.43290914 42.46238241 57.70838722 44.09765625 59.984375 C45.82966228 62.39265602 47.58330532 64.77261529 49.37109375 67.140625 C50.01175781 68.00171875 50.65242188 68.8628125 51.3125 69.75 C51.84488281 70.44609375 52.37726563 71.1421875 52.92578125 71.859375 C54.36091101 74.71919721 54.28373088 76.84084724 54 80 C52.5 82.875 52.5 82.875 50 85 C45.10265008 85.94787418 45.10265008 85.94787418 42 85 C40.49780273 83.68774414 40.49780273 83.68774414 39.12109375 81.97265625 C38.35152344 81.01915283 38.35152344 81.01915283 37.56640625 80.04638672 C34.95768689 76.6382998 32.42535973 73.18470233 29.9375 69.6875 C28.79044911 68.087179 27.64331124 66.48692033 26.49609375 64.88671875 C25.91585449 64.07509277 25.33561523 63.2634668 24.73779297 62.42724609 C22.00425475 58.60920213 19.25151362 54.80509821 16.5 51 C15.42181604 49.50655298 14.34369124 48.01306325 13.265625 46.51953125 C11.05036298 43.45188652 8.83115883 40.3871429 6.609375 37.32421875 C3.89286181 33.57822395 1.18712695 29.82465845 -1.51171875 26.06591797 C-2.92675092 24.10167876 -4.35346438 22.14638216 -5.78125 20.19140625 C-6.60488497 19.04478646 -7.42784877 17.89768413 -8.25 16.75 C-8.95640625 15.77546875 -9.6628125 14.8009375 -10.390625 13.796875 C-12.14894604 10.74115203 -12.81002793 8.51204768 -13 5 C-9.20422187 -0.89000055 -6.77180211 -1.57111628 0 0 Z " fill="#252121" transform="translate(276,190)"/>
<path d="M0 0 C7.64154249 4.5222899 10.38346328 9.94412408 12.6875 18.375 C12.96980469 19.57898438 13.25210938 20.78296875 13.54296875 22.0234375 C14.25035127 25.28302503 14.25035127 25.28302503 17.5 27 C22.15815681 26.59404786 22.15815681 26.59404786 26.5 25 C30.46 25 34.42 25 38.5 25 C38.5 33.58 38.5 42.16 38.5 51 C27.91964286 44.30357143 27.91964286 44.30357143 23.4375 41.1875 C9.01952471 31.600945 -6.56627872 24.64288592 -22.5 18 C-23.87646831 17.42096792 -25.25279164 16.84159094 -26.62890625 16.26171875 C-29.24843678 15.16380454 -31.87073134 14.07432483 -34.5 13 C-31.93238655 6.33087416 -28.63460313 2.26826604 -22.25390625 -1.04296875 C-14.97526715 -3.57242489 -7.01558929 -3.1109853 0 0 Z " fill="#2CA254" transform="translate(455.5,384)"/>
<path d="M0 0 C3.37402968 1.41098277 5.01708631 2.97248276 7.13671875 5.9296875 C7.710271 6.71988281 8.28382324 7.51007813 8.87475586 8.32421875 C9.47296143 9.16597656 10.07116699 10.00773438 10.6875 10.875 C11.93154166 12.60210298 13.17633403 14.32866547 14.421875 16.0546875 C15.02837891 16.89870117 15.63488281 17.74271484 16.25976562 18.61230469 C17.78998397 20.7118467 19.35235292 22.77438813 20.953125 24.8203125 C21.37891846 25.36703613 21.80471191 25.91375977 22.2434082 26.47705078 C23.36365315 27.90581544 24.49209215 29.32814467 25.62109375 30.75 C26.30365234 31.86375 26.30365234 31.86375 27 33 C26.67 33.99 26.34 34.98 26 36 C25.31188232 36.10022461 24.62376465 36.20044922 23.91479492 36.30371094 C3.98445805 39.228839 -15.5057502 42.94493936 -35 48 C-33.57628404 44.92006257 -31.87083877 42.36504973 -29.796875 39.68359375 C-29.15258545 38.84562256 -28.5082959 38.00765137 -27.84448242 37.14428711 C-27.15330322 36.25104736 -26.46212402 35.35780762 -25.75 34.4375 C-18.50034589 25.00182171 -11.39498975 15.47011053 -4.37182617 5.86499023 C-2.92687598 3.9005883 -1.46595797 1.94876012 0 0 Z " fill="#B9AC88" transform="translate(109,239)"/>
<path d="M0 0 C1.28490829 -0.01583633 2.56981659 -0.03167267 3.8936615 -0.04798889 C5.29312503 -0.04414717 6.69258572 -0.03910798 8.09204102 -0.03295898 C9.53166608 -0.03819561 10.9712877 -0.04447223 12.41090393 -0.05174255 C15.42628131 -0.06214459 18.44118674 -0.05758932 21.45654297 -0.04296875 C25.31497959 -0.02578897 29.1719259 -0.04926452 33.03019619 -0.08445835 C36.00289215 -0.10645377 38.97523275 -0.1049858 41.9479847 -0.09669304 C43.3701141 -0.0958745 44.79226985 -0.10271937 46.21432304 -0.11746407 C48.20531626 -0.13494213 50.19652431 -0.11702888 52.1875 -0.09765625 C53.31905014 -0.09669449 54.45060028 -0.09573273 55.61643982 -0.09474182 C59.60077992 0.72804347 61.10935465 2.43893909 63.65844727 5.53344727 C64.56582868 8.55993061 64.12277859 10.28312797 63.65844727 13.53344727 C61.4988281 16.46274372 60.31676667 17.42046916 56.69873047 18.04138184 C54.971427 18.0461554 54.971427 18.0461554 53.20922852 18.05102539 C51.24699341 18.06993835 51.24699341 18.06993835 49.24511719 18.0892334 C47.8203884 18.08207359 46.39566452 18.07386961 44.97094727 18.06469727 C43.5065078 18.06739275 42.04207007 18.07127565 40.57763672 18.07629395 C37.51097546 18.08218645 34.44478078 18.07363473 31.37817383 18.05493164 C27.4503109 18.03214137 23.52354121 18.0452659 19.59571838 18.0692215 C16.5724669 18.08368667 13.54947394 18.07907038 10.5262146 18.06871033 C9.0781542 18.06604499 7.6300702 18.06930609 6.18203735 18.07862854 C4.15725157 18.08880386 2.13238332 18.07054059 0.10766602 18.05102539 C-1.04386963 18.04784302 -2.19540527 18.04466064 -3.38183594 18.04138184 C-6.9662356 17.42624173 -8.14285145 16.37443803 -10.34155273 13.53344727 C-10.87280273 11.31469727 -10.87280273 11.31469727 -10.84155273 9.03344727 C-10.85186523 8.28063477 -10.86217773 7.52782227 -10.87280273 6.75219727 C-9.48188041 0.94305108 -5.38997544 0.0295468 0 0 Z " fill="#B7E4F3" transform="translate(134.341552734375,58.466552734375)"/>
<path d="M0 0 C1.74216797 0.04060547 1.74216797 0.04060547 3.51953125 0.08203125 C4.39996094 0.11683594 5.28039062 0.15164063 6.1875 0.1875 C4.8675 0.5175 3.5475 0.8475 2.1875 1.1875 C2.25292496 2.27505585 2.25292496 2.27505585 2.31967163 3.38458252 C2.72057017 10.26560852 3.05057975 17.1469139 3.30402184 24.03483963 C3.43673131 27.57562277 3.59527522 31.11101083 3.81640625 34.64746094 C5.33560642 59.40726845 5.33560642 59.40726845 0.18066406 65.68164062 C-3.15184272 68.85909424 -6.76357095 71.02538913 -10.8125 73.1875 C-12.15926442 74.16933674 -13.4957901 75.16571097 -14.8125 76.1875 C-14.88206294 67.40779475 -14.9353431 58.62818462 -14.96793652 49.84826374 C-14.9835811 45.77122056 -15.00479708 41.69436617 -15.03881836 37.61743164 C-15.07145524 33.68168982 -15.0893621 29.7461294 -15.09713173 25.81026268 C-15.1026675 24.30997043 -15.11347761 22.80968791 -15.12969017 21.30947304 C-15.15152272 19.20520328 -15.1544646 17.10167956 -15.15307617 14.99731445 C-15.15973801 13.80040482 -15.16639984 12.60349518 -15.17326355 11.37031555 C-14.77461953 7.85330175 -13.90452316 6.01152339 -11.8125 3.1875 C-7.90213443 0.07406558 -4.91948944 -0.14907544 0 0 Z " fill="#2B974F" transform="translate(32.8125,372.8125)"/>
<path d="M0 0 C0.66 0.33 1.32 0.66 2 1 C0.68 2.32 -0.64 3.64 -2 5 C-2.33 17.54 -2.66 30.08 -3 43 C148.47 43 299.94 43 456 43 C456 43.33 456 43.66 456 44 C298.92 44 141.84 44 -20 44 C-20 21 -20 21 -14.5 13.5625 C-11.203125 10.6171875 -11.203125 10.6171875 -9.55664062 9.28417969 C-7.28806114 7.41267277 -5.28691356 5.30501086 -3.25 3.1875 C-2.16937292 2.12224769 -1.08726095 1.05848051 0 0 Z " fill="#33B561" transform="translate(38,452)"/>
<path d="M0 0 C2.35546875 0.02734375 2.35546875 0.02734375 5 1 C7.23828125 3.50390625 7.23828125 3.50390625 9.3125 6.5625 C10.00988281 7.57441406 10.70726562 8.58632812 11.42578125 9.62890625 C12.20501953 10.80259766 12.20501953 10.80259766 13 12 C12.15179688 12.96421875 11.30359375 13.9284375 10.4296875 14.921875 C6.76416233 19.20011259 3.44099645 23.69860548 0.125 28.25 C-0.4848877 29.08249268 -1.09477539 29.91498535 -1.72314453 30.77270508 C-3.48519358 33.17956024 -5.24331925 35.58922497 -7 38 C-7.46921875 38.64308105 -7.9384375 39.28616211 -8.421875 39.94873047 C-10.62004061 42.96187955 -12.81354316 45.97834381 -15 49 C-18.01693943 46.14325205 -20.40554531 43.17651069 -22.75 39.75 C-23.36359375 38.85796875 -23.9771875 37.9659375 -24.609375 37.046875 C-25.06828125 36.37140625 -25.5271875 35.6959375 -26 35 C-24.60428298 32.02018184 -22.97633566 29.45029824 -21.0234375 26.8046875 C-20.43852539 26.01054443 -19.85361328 25.21640137 -19.25097656 24.39819336 C-18.6319043 23.56553955 -18.01283203 22.73288574 -17.375 21.875 C-16.74561523 21.02494385 -16.11623047 20.1748877 -15.46777344 19.29907227 C-4.37769728 4.37769728 -4.37769728 4.37769728 0 0 Z " fill="#AB9E7E" transform="translate(367,158)"/>
<path d="M0 0 C3.01466955 1.23038606 4.06136921 2.4837441 5.94799805 5.12036133 C6.55450195 5.95631836 7.16100586 6.79227539 7.78588867 7.65356445 C8.40270508 8.53334961 9.01952148 9.41313477 9.6550293 10.31958008 C10.59765625 11.62185547 10.59765625 11.62185547 11.55932617 12.95043945 C14.13684265 16.54242231 16.58283449 19.99661823 18.4675293 24.00708008 C17.07675629 24.82821185 15.67964037 25.63860502 14.2800293 26.44458008 C13.50272461 26.89704102 12.72541992 27.34950195 11.92456055 27.81567383 C4.98511191 31.18058931 -4.18511103 31.15052624 -11.5324707 29.21801758 C-18.04529538 26.73784307 -18.04529538 26.73784307 -20.5324707 23.00708008 C-18.28815335 19.91957395 -16.03603316 16.83784304 -13.7824707 13.75708008 C-13.14825195 12.88438477 -12.5140332 12.01168945 -11.8605957 11.11254883 C-11.2418457 10.26821289 -10.6230957 9.42387695 -9.9855957 8.55395508 C-9.42001953 7.77890625 -8.85444336 7.00385742 -8.27172852 6.20532227 C-3.36950658 0.0094202 -3.36950658 0.0094202 0 0 Z " fill="#E8DDC6" transform="translate(256.532470703125,107.992919921875)"/>
<path d="M0 0 C0.66 0.33 1.32 0.66 2 1 C1.34 1.66 0.68 2.32 0 3 C-0.30416598 5.01588006 -0.30416598 5.01588006 -0.2734375 7.32421875 C-0.2940625 8.18853516 -0.3146875 9.05285156 -0.3359375 9.94335938 C-0.36169984 11.75316366 -0.38009434 13.56308988 -0.390625 15.37304688 C-0.55329883 21.47783422 -1.62190736 24.91344671 -5 30 C-5.72045764 31.9812585 -6.40781343 33.97669589 -7 36 C-10.63 36.66 -14.26 37.32 -18 38 C-18 28.43 -18 18.86 -18 9 C-15.69 8.34 -13.38 7.68 -11 7 C-7.97176684 5.28408307 -7.97176684 5.28408307 -5.1875 3.3125 C-2.35546875 1.36328125 -2.35546875 1.36328125 0 0 Z " fill="#A0CB41" transform="translate(36,321)"/>
<path d="M0 0 C2.5 1.4375 2.5 1.4375 4 4 C4.76004105 8.31481639 4.73570183 11.74317604 2.5 15.5625 C-1.0064524 17.57871013 -4.11773844 17.86698727 -8 17 C-11.0625 15 -11.0625 15 -13 12 C-13.45019756 7.94018271 -12.58524993 4.93639989 -10.4375 1.5 C-6.9411811 -0.65158086 -3.99758828 -0.77821903 0 0 Z " fill="#B3DFED" transform="translate(75,59)"/>
</svg>
